<svg width="30" height="35" viewBox="0 0 30 35" fill="none" xmlns="http://www.w3.org/2000/svg">
<path fill-rule="evenodd" clip-rule="evenodd" d="M12.9846 31.506C12.9846 31.9116 12.9269 32.264 12.8116 32.5631C12.6963 32.8622 12.5357 33.1195 12.3297 33.335C12.1238 33.5505 11.8767 33.7254 11.5885 33.8597C11.3002 33.9941 10.9817 34.1005 10.633 34.1791C10.2843 34.2577 9.91233 34.3122 9.51698 34.3426C9.12163 34.373 8.71255 34.3882 8.28974 34.3882H0.0779419V23.9393H8.14148C8.46545 23.9393 8.79079 23.952 9.11751 23.9774C9.44423 24.0027 9.75584 24.0496 10.0524 24.118C10.3489 24.1865 10.6248 24.2815 10.8801 24.4032C11.1355 24.5249 11.3578 24.6846 11.5473 24.8823C11.7367 25.08 11.885 25.3183 11.9921 25.5972C12.0991 25.876 12.1527 26.2055 12.1527 26.5858C12.1527 27.2651 11.9715 27.8038 11.6091 28.2018C11.2466 28.5998 10.6756 28.8647 9.89586 28.9965C10.445 29.032 10.9158 29.1093 11.3084 29.2284C11.701 29.3476 12.0209 29.5098 12.268 29.7151C12.5151 29.9205 12.6963 30.1714 12.8116 30.468C12.9269 30.7646 12.9846 31.1106 12.9846 31.506ZM9.17106 27.0345C9.17106 26.9026 9.14909 26.7772 9.10517 26.658C9.06124 26.5389 8.98162 26.4337 8.86631 26.3424C8.751 26.2512 8.5945 26.1777 8.39683 26.1219C8.19915 26.0661 7.94657 26.0382 7.63907 26.0382H3.1337V28.0003H7.63907C7.94657 28.0003 8.19915 27.9749 8.39683 27.9242C8.5945 27.8735 8.751 27.8051 8.86631 27.7189C8.98162 27.6327 9.06124 27.53 9.10517 27.4109C9.14909 27.2918 9.17106 27.1663 9.17106 27.0345ZM9.8794 31.179C9.8794 30.9408 9.83547 30.7494 9.74761 30.6049C9.65976 30.4604 9.52248 30.3489 9.33579 30.2703C9.14909 30.1917 8.90749 30.1397 8.61098 30.1144C8.31446 30.089 7.96029 30.0764 7.54847 30.0764H3.1337V32.2893H7.54847C7.96029 32.2893 8.31446 32.2767 8.61098 32.2513C8.90749 32.226 9.14909 32.1727 9.33579 32.0916C9.52248 32.0105 9.65976 31.8977 9.74761 31.7532C9.83547 31.6087 9.8794 31.4173 9.8794 31.179ZM18.9295 27.9242L25.1892 23.9393H29.2828L21.664 28.9509L29.7934 34.3882H25.3375L18.9295 30.0459V34.3882H15.8573V23.9393H18.9295V27.9242Z" fill="white"/>
<rect x="15.5049" width="3.44554" height="19.25" rx="1" fill="white"/>
<rect x="7.75247" y="6.125" width="3.44554" height="13.125" rx="1" fill="white"/>
<rect y="13.125" width="3.44554" height="6.125" rx="1" fill="white"/>
</svg>
